<svg width="28" height="28" viewBox="0 0 28 28" fill="none" xmlns="http://www.w3.org/2000/svg">
<rect width="28" height="28" fill="url(#paint0_linear_65_416)"/>
<path d="M20.0862 8.44767C18.9453 7.9259 17.7337 7.54562 16.4691 7.33337C16.3099 7.60753 16.133 7.97897 16.0092 8.27081C14.6641 8.07624 13.3287 8.07624 12.0021 8.27081C11.8783 7.97897 11.6926 7.60753 11.5422 7.33337C10.2688 7.54562 9.05717 7.9259 7.92429 8.44767C5.63377 11.826 5.01472 15.1246 5.32425 18.3791C6.84536 19.4846 8.31343 20.1567 9.75584 20.599C10.1096 20.1214 10.428 19.6084 10.7021 19.069C10.1803 18.8744 9.68509 18.6356 9.20753 18.3526C9.33135 18.2642 9.45517 18.167 9.57013 18.0696C12.4532 19.3874 15.5759 19.3874 18.4235 18.0696C18.5473 18.167 18.6623 18.2642 18.7862 18.3526C18.3086 18.6356 17.8133 18.8744 17.2916 19.069C17.5657 19.6084 17.8841 20.1214 18.2378 20.599C19.6793 20.1567 21.1562 19.4846 22.6694 18.3791C23.0497 14.6118 22.0672 11.3396 20.0862 8.44767ZM11.1001 16.3716C10.2334 16.3716 9.52589 15.5845 9.52589 14.6206C9.52589 13.6566 10.2157 12.8695 11.1001 12.8695C11.9756 12.8695 12.6919 13.6566 12.6742 14.6206C12.6742 15.5845 11.9756 16.3716 11.1001 16.3716ZM16.9113 16.3716C16.0446 16.3716 15.3362 15.5845 15.3362 14.6206C15.3362 13.6566 16.0269 12.8695 16.9113 12.8695C17.7868 12.8695 18.5032 13.6566 18.4854 14.6206C18.4854 15.5845 17.7957 16.3716 16.9113 16.3716Z" fill="white"/>
<defs>
<linearGradient id="paint0_linear_65_416" x1="14" y1="0" x2="14" y2="28" gradientUnits="userSpaceOnUse">
<stop stop-color="#6C73F8"/>
<stop offset="1" stop-color="#5159F4"/>
</linearGradient>
</defs>
</svg>
