<svg width="28" height="28" viewBox="0 0 28 28" fill="none" xmlns="http://www.w3.org/2000/svg">
<rect width="28" height="28" fill="url(#paint0_linear_65_421)"/>
<path d="M5.78953 13.8415C10.1623 11.9364 13.0783 10.6804 14.5372 10.0736C18.7028 8.34093 19.5684 8.03995 20.1326 8.03001C20.2567 8.02783 20.5342 8.05858 20.7138 8.20441C20.8656 8.32755 20.9073 8.49389 20.9273 8.61063C20.9473 8.72738 20.9722 8.99333 20.9524 9.20113C20.7267 11.573 19.7499 17.3289 19.253 19.9854C19.0428 21.1095 18.6288 21.4863 18.2279 21.5232C17.3568 21.6034 16.6953 20.9475 15.8517 20.3945C14.5315 19.5291 13.7857 18.9904 12.5042 18.1459C11.0232 17.17 11.9833 16.6335 12.8273 15.757C13.0482 15.5275 16.8862 12.0366 16.9604 11.7199C16.9697 11.6803 16.9783 11.5327 16.8906 11.4547C16.8029 11.3768 16.6735 11.4034 16.5801 11.4246C16.4477 11.4547 14.3386 12.8486 10.253 15.6066C9.65432 16.0176 9.11209 16.218 8.62628 16.2075C8.09069 16.1959 7.06046 15.9046 6.29458 15.6557C5.35521 15.3503 4.60861 15.1889 4.67362 14.6703C4.70749 14.4002 5.07945 14.124 5.78953 13.8415Z" fill="white"/>
<defs>
<linearGradient id="paint0_linear_65_421" x1="14" y1="0" x2="14" y2="28" gradientUnits="userSpaceOnUse">
<stop stop-color="#45B1F7"/>
<stop offset="1" stop-color="#1F84CC"/>
</linearGradient>
</defs>
</svg>
